<svg xmlns="http://www.w3.org/2000/svg" version="1.1" width="595px" height="166px" style="shape-rendering:geometricPrecision; text-rendering:geometricPrecision; image-rendering:optimizeQuality; fill-rule:evenodd; clip-rule:evenodd" xmlns:xlink="http://www.w3.org/1999/xlink">
<g><path style="opacity:1" fill="#2a2c2f" d="M -0.5,-0.5 C 197.833,-0.5 396.167,-0.5 594.5,-0.5C 594.5,54.8333 594.5,110.167 594.5,165.5C 396.167,165.5 197.833,165.5 -0.5,165.5C -0.5,110.167 -0.5,54.8333 -0.5,-0.5 Z"/></g>
<g><path style="opacity:1" fill="#fafafa" d="M 357.5,49.5 C 371.283,47.3435 383.116,51.0101 393,60.5C 396.326,65.3115 398.159,70.6449 398.5,76.5C 391.833,76.5 385.167,76.5 378.5,76.5C 377.77,69.4411 373.77,65.7744 366.5,65.5C 355.887,67.989 351.221,74.8223 352.5,86C 352.248,92.4891 354.248,98.1557 358.5,103C 363.833,106.333 369.167,106.333 374.5,103C 376.209,101.084 377.543,98.9176 378.5,96.5C 385.134,95.5033 391.8,95.17 398.5,95.5C 396.473,107.369 389.806,115.535 378.5,120C 356.092,125.715 340.925,117.882 333,96.5C 332.333,89.1667 332.333,81.8333 333,74.5C 336.683,61.6514 344.85,53.3181 357.5,49.5 Z"/></g>
<g><path style="opacity:1" fill="#f9f9f9" d="M 62.5,50.5 C 69.1667,50.5 75.8333,50.5 82.5,50.5C 82.5,73.8333 82.5,97.1667 82.5,120.5C 75.8333,120.5 69.1667,120.5 62.5,120.5C 62.5,97.1667 62.5,73.8333 62.5,50.5 Z"/></g>
<g><path style="opacity:1" fill="#fcfcfc" d="M 130.5,85.5 C 130.783,86.2891 131.283,86.9558 132,87.5C 132.5,75.1712 132.667,62.8378 132.5,50.5C 138.833,50.5 145.167,50.5 151.5,50.5C 151.5,73.8333 151.5,97.1667 151.5,120.5C 145.824,120.666 140.157,120.499 134.5,120C 126.441,108.701 118.774,97.2008 111.5,85.5C 111.44,84.9569 111.107,84.6236 110.5,84.5C 109.501,96.4815 109.168,108.482 109.5,120.5C 103.167,120.5 96.8333,120.5 90.5,120.5C 90.5,97.1667 90.5,73.8333 90.5,50.5C 96.1764,50.3339 101.843,50.5006 107.5,51C 115.559,62.2992 123.226,73.7992 130.5,85.5 Z"/></g>
<g><path style="opacity:1" fill="#98999a" d="M 132.5,50.5 C 132.667,62.8378 132.5,75.1712 132,87.5C 131.283,86.9558 130.783,86.2891 130.5,85.5C 131.167,73.8333 131.833,62.1667 132.5,50.5 Z"/></g>
<g><path style="opacity:1" fill="#fbfbfb" d="M 159.5,50.5 C 176.167,50.5 192.833,50.5 209.5,50.5C 209.5,55.5 209.5,60.5 209.5,65.5C 199.5,65.5 189.5,65.5 179.5,65.5C 179.5,69.8333 179.5,74.1667 179.5,78.5C 188.5,78.5 197.5,78.5 206.5,78.5C 206.5,83.5 206.5,88.5 206.5,93.5C 197.5,93.5 188.5,93.5 179.5,93.5C 179.5,102.5 179.5,111.5 179.5,120.5C 172.833,120.5 166.167,120.5 159.5,120.5C 159.5,97.1667 159.5,73.8333 159.5,50.5 Z"/></g>
<g><path style="opacity:1" fill="#f8f8f8" d="M 215.5,50.5 C 222.167,50.5 228.833,50.5 235.5,50.5C 235.5,73.8333 235.5,97.1667 235.5,120.5C 228.833,120.5 222.167,120.5 215.5,120.5C 215.5,97.1667 215.5,73.8333 215.5,50.5 Z"/></g>
<g><path style="opacity:1" fill="#f8f8f8" d="M 265.5,87.5 C 265.013,86.5266 264.513,85.5266 264,84.5C 263.5,96.4954 263.333,108.495 263.5,120.5C 256.833,120.5 250.167,120.5 243.5,120.5C 243.5,97.1667 243.5,73.8333 243.5,50.5C 249.537,50.1707 255.537,50.5041 261.5,51.5C 269.529,63.0303 277.363,74.697 285,86.5C 285.5,74.5046 285.667,62.5046 285.5,50.5C 292.167,50.5 298.833,50.5 305.5,50.5C 305.5,73.8333 305.5,97.1667 305.5,120.5C 299.824,120.666 294.157,120.499 288.5,120C 280.934,109.012 273.268,98.1788 265.5,87.5 Z"/></g>
<g><path style="opacity:1" fill="#f7f7f8" d="M 406.5,50.5 C 413.167,50.5 419.833,50.5 426.5,50.5C 426.5,73.8333 426.5,97.1667 426.5,120.5C 419.833,120.5 413.167,120.5 406.5,120.5C 406.5,97.1667 406.5,73.8333 406.5,50.5 Z"/></g>
<g><path style="opacity:1" fill="#f8f8f8" d="M 496.5,50.5 C 503.167,50.5 509.833,50.5 516.5,50.5C 516.334,58.84 516.5,67.1733 517,75.5C 523.183,67.1547 531.017,65.3214 540.5,70C 549.435,75.7097 553.102,83.8764 551.5,94.5C 552.905,107.56 547.571,116.393 535.5,121C 527.813,122.994 521.646,120.827 517,114.5C 516.505,116.473 516.338,118.473 516.5,120.5C 509.833,120.5 503.167,120.5 496.5,120.5C 496.5,97.1667 496.5,73.8333 496.5,50.5 Z"/></g>
<g><path style="opacity:1" fill="#f8f8f9" d="M 470.5,120.5 C 470.665,117.482 470.498,114.482 470,111.5C 469.283,112.044 468.783,112.711 468.5,113.5C 466.565,117.657 463.231,120.157 458.5,121C 446.308,123.128 438.474,118.295 435,106.5C 434.5,93.8377 434.333,81.1711 434.5,68.5C 441.167,68.5 447.833,68.5 454.5,68.5C 454.333,79.1719 454.5,89.8385 455,100.5C 458.232,107.649 462.565,108.316 468,102.5C 468.5,91.1716 468.667,79.8382 468.5,68.5C 475.167,68.5 481.833,68.5 488.5,68.5C 488.5,85.8333 488.5,103.167 488.5,120.5C 482.5,120.5 476.5,120.5 470.5,120.5 Z"/></g>
<g><path style="opacity:1" fill="#2d2f32" d="M 520.5,82.5 C 525.439,81.3519 528.939,83.0186 531,87.5C 531.667,92.1667 531.667,96.8333 531,101.5C 526.238,109.367 521.571,109.367 517,101.5C 516.333,96.8333 516.333,92.1667 517,87.5C 517.997,85.6769 519.164,84.0103 520.5,82.5 Z"/></g>
<g><path style="opacity:1" fill="#acadae" d="M 111.5,85.5 C 110.833,97.1667 110.167,108.833 109.5,120.5C 109.168,108.482 109.501,96.4815 110.5,84.5C 111.107,84.6236 111.44,84.9569 111.5,85.5 Z"/></g>
<g><path style="opacity:1" fill="#616365" d="M 265.5,87.5 C 264.833,98.5 264.167,109.5 263.5,120.5C 263.333,108.495 263.5,96.4954 264,84.5C 264.513,85.5266 265.013,86.5266 265.5,87.5 Z"/></g>
<g><path style="opacity:1" fill="#acadae" d="M 470.5,120.5 C 469.833,118.167 469.167,115.833 468.5,113.5C 468.783,112.711 469.283,112.044 470,111.5C 470.498,114.482 470.665,117.482 470.5,120.5 Z"/></g>
</svg>
