<svg width="214" height="105" viewBox="0 0 214 105" fill="none" xmlns="http://www.w3.org/2000/svg">
<g filter="url(#filter0_d_14_3)">
<mask id="path-1-outside-1_14_3" maskUnits="userSpaceOnUse" x="4" y="0" width="210" height="101" fill="black">
<rect fill="white" x="4" width="210" height="101"/>
<path d="M16.768 12.496L5.888 10.832V2.896H46.848V10.832L35.584 12.496V89.04L46.848 90.448V98H5.888V90.32L16.768 89.04V12.496ZM67.729 12.496L57.233 10.832V2.896H127.889L129.169 26.064H118.929L114.193 11.984L86.545 10.576V46.8L105.617 46.416L108.049 35.152H116.241V67.664H108.177L105.617 56.144L86.545 55.632V89.04L106.129 90.32V98H57.873V90.32L67.729 89.04V12.496ZM180.762 99.408C166.255 99.408 155.162 95.0987 147.482 86.48C139.802 77.776 135.962 65.9147 135.962 50.896C135.962 40.9973 137.967 32.3787 141.978 25.04C146.074 17.616 151.663 11.8987 158.746 7.88799C165.829 3.87733 173.85 1.87199 182.81 1.87199C186.565 1.87199 190.191 2.12799 193.69 2.63999C197.189 3.06666 201.327 3.664 206.106 4.432C209.69 5.02933 211.653 5.328 211.994 5.328L210.586 31.696H198.81L194.842 13.392C193.903 12.4533 192.282 11.6853 189.978 11.088C187.674 10.4907 184.73 10.192 181.146 10.192C173.893 10.192 168.047 13.5627 163.61 20.304C159.258 26.96 157.082 36.6453 157.082 49.36C157.082 61.648 159.173 71.6747 163.354 79.44C167.535 87.2053 173.637 91.088 181.658 91.088C185.498 91.088 188.442 90.7467 190.49 90.064C192.623 89.296 194.415 88.2293 195.866 86.864L201.498 73.68L212.25 74.704L209.69 94.544C207.898 94.7147 206.106 95.056 204.314 95.568C202.607 95.9947 201.541 96.2507 201.114 96.336C197.701 97.2747 194.501 98 191.514 98.512C188.613 99.1093 185.029 99.408 180.762 99.408Z"/>
</mask>
<path d="M16.768 12.496L5.888 10.832V2.896H46.848V10.832L35.584 12.496V89.04L46.848 90.448V98H5.888V90.32L16.768 89.04V12.496ZM67.729 12.496L57.233 10.832V2.896H127.889L129.169 26.064H118.929L114.193 11.984L86.545 10.576V46.8L105.617 46.416L108.049 35.152H116.241V67.664H108.177L105.617 56.144L86.545 55.632V89.04L106.129 90.32V98H57.873V90.32L67.729 89.04V12.496ZM180.762 99.408C166.255 99.408 155.162 95.0987 147.482 86.48C139.802 77.776 135.962 65.9147 135.962 50.896C135.962 40.9973 137.967 32.3787 141.978 25.04C146.074 17.616 151.663 11.8987 158.746 7.88799C165.829 3.87733 173.85 1.87199 182.81 1.87199C186.565 1.87199 190.191 2.12799 193.69 2.63999C197.189 3.06666 201.327 3.664 206.106 4.432C209.69 5.02933 211.653 5.328 211.994 5.328L210.586 31.696H198.81L194.842 13.392C193.903 12.4533 192.282 11.6853 189.978 11.088C187.674 10.4907 184.73 10.192 181.146 10.192C173.893 10.192 168.047 13.5627 163.61 20.304C159.258 26.96 157.082 36.6453 157.082 49.36C157.082 61.648 159.173 71.6747 163.354 79.44C167.535 87.2053 173.637 91.088 181.658 91.088C185.498 91.088 188.442 90.7467 190.49 90.064C192.623 89.296 194.415 88.2293 195.866 86.864L201.498 73.68L212.25 74.704L209.69 94.544C207.898 94.7147 206.106 95.056 204.314 95.568C202.607 95.9947 201.541 96.2507 201.114 96.336C197.701 97.2747 194.501 98 191.514 98.512C188.613 99.1093 185.029 99.408 180.762 99.408Z" fill="#F1E3BE"/>
<path d="M16.768 12.496H17.768V11.6373L16.9192 11.5075L16.768 12.496ZM5.888 10.832H4.888V11.6907L5.73682 11.8205L5.888 10.832ZM5.888 2.896V1.896H4.888V2.896H5.888ZM46.848 2.896H47.848V1.896H46.848V2.896ZM46.848 10.832L46.9941 11.8213L47.848 11.6951V10.832H46.848ZM35.584 12.496L35.4379 11.5067L34.584 11.6329V12.496H35.584ZM35.584 89.04H34.584V89.9228L35.46 90.0323L35.584 89.04ZM46.848 90.448H47.848V89.5652L46.972 89.4557L46.848 90.448ZM46.848 98V99H47.848V98H46.848ZM5.888 98H4.888V99H5.888V98ZM5.888 90.32L5.77116 89.3268L4.888 89.4308V90.32H5.888ZM16.768 89.04L16.8848 90.0332L17.768 89.9292V89.04H16.768ZM16.9192 11.5075L6.03918 9.84349L5.73682 11.8205L16.6168 13.4845L16.9192 11.5075ZM6.888 10.832V2.896H4.888V10.832H6.888ZM5.888 3.896H46.848V1.896H5.888V3.896ZM45.848 2.896V10.832H47.848V2.896H45.848ZM46.7019 9.84273L35.4379 11.5067L35.7301 13.4853L46.9941 11.8213L46.7019 9.84273ZM34.584 12.496V89.04H36.584V12.496H34.584ZM35.46 90.0323L46.724 91.4403L46.972 89.4557L35.708 88.0477L35.46 90.0323ZM45.848 90.448V98H47.848V90.448H45.848ZM46.848 97H5.888V99H46.848V97ZM6.888 98V90.32H4.888V98H6.888ZM6.00484 91.3132L16.8848 90.0332L16.6512 88.0468L5.77116 89.3268L6.00484 91.3132ZM17.768 89.04V12.496H15.768V89.04H17.768ZM67.729 12.496H68.729V11.642L67.8856 11.5083L67.729 12.496ZM57.233 10.832H56.233V11.6859L57.0764 11.8197L57.233 10.832ZM57.233 2.896V1.896H56.233V2.896H57.233ZM127.889 2.896L128.887 2.84083L128.835 1.896H127.889V2.896ZM129.169 26.064V27.064H130.226L130.167 26.0088L129.169 26.064ZM118.929 26.064L117.981 26.3828L118.21 27.064H118.929V26.064ZM114.193 11.984L115.141 11.6652L114.924 11.0199L114.244 10.9853L114.193 11.984ZM86.545 10.576L86.5959 9.57729L85.545 9.52377V10.576H86.545ZM86.545 46.8H85.545V47.8203L86.5651 47.7998L86.545 46.8ZM105.617 46.416L105.637 47.4158L106.428 47.3999L106.594 46.627L105.617 46.416ZM108.049 35.152V34.152H107.242L107.072 34.941L108.049 35.152ZM116.241 35.152H117.241V34.152H116.241V35.152ZM116.241 67.664V68.664H117.241V67.664H116.241ZM108.177 67.664L107.201 67.8809L107.375 68.664H108.177V67.664ZM105.617 56.144L106.593 55.9271L106.424 55.1653L105.644 55.1444L105.617 56.144ZM86.545 55.632L86.5718 54.6324L85.545 54.6048V55.632H86.545ZM86.545 89.04H85.545V89.9768L86.4798 90.0379L86.545 89.04ZM106.129 90.32H107.129V89.3832L106.194 89.3221L106.129 90.32ZM106.129 98V99H107.129V98H106.129ZM57.873 98H56.873V99H57.873V98ZM57.873 90.32L57.7442 89.3283L56.873 89.4415V90.32H57.873ZM67.729 89.04L67.8578 90.0317L68.729 89.9185V89.04H67.729ZM67.8856 11.5083L57.3896 9.84433L57.0764 11.8197L67.5724 13.4837L67.8856 11.5083ZM58.233 10.832V2.896H56.233V10.832H58.233ZM57.233 3.896H127.889V1.896H57.233V3.896ZM126.891 2.95116L128.171 26.1192L130.167 26.0088L128.887 2.84083L126.891 2.95116ZM129.169 25.064H118.929V27.064H129.169V25.064ZM119.877 25.7452L115.141 11.6652L113.245 12.3028L117.981 26.3828L119.877 25.7452ZM114.244 10.9853L86.5959 9.57729L86.4941 11.5747L114.142 12.9827L114.244 10.9853ZM85.545 10.576V46.8H87.545V10.576H85.545ZM86.5651 47.7998L105.637 47.4158L105.597 45.4162L86.5249 45.8002L86.5651 47.7998ZM106.594 46.627L109.026 35.363L107.072 34.941L104.64 46.205L106.594 46.627ZM108.049 36.152H116.241V34.152H108.049V36.152ZM115.241 35.152V67.664H117.241V35.152H115.241ZM116.241 66.664H108.177V68.664H116.241V66.664ZM109.153 67.4471L106.593 55.9271L104.641 56.3609L107.201 67.8809L109.153 67.4471ZM105.644 55.1444L86.5718 54.6324L86.5182 56.6316L105.59 57.1436L105.644 55.1444ZM85.545 55.632V89.04H87.545V55.632H85.545ZM86.4798 90.0379L106.064 91.3179L106.194 89.3221L86.6102 88.0421L86.4798 90.0379ZM105.129 90.32V98H107.129V90.32H105.129ZM106.129 97H57.873V99H106.129V97ZM58.873 98V90.32H56.873V98H58.873ZM58.0018 91.3117L67.8578 90.0317L67.6002 88.0483L57.7442 89.3283L58.0018 91.3117ZM68.729 89.04V12.496H66.729V89.04H68.729ZM147.482 86.48L146.732 87.1416L146.735 87.1453L147.482 86.48ZM141.978 25.04L141.102 24.5569L141.1 24.5604L141.978 25.04ZM158.746 7.88799L158.253 7.01782L158.253 7.01782L158.746 7.88799ZM193.69 2.63999L193.545 3.62945L193.557 3.63119L193.569 3.63264L193.69 2.63999ZM206.106 4.432L206.27 3.44559L206.265 3.44467L206.106 4.432ZM211.994 5.328L212.993 5.38132L213.049 4.328H211.994V5.328ZM210.586 31.696V32.696H211.534L211.585 31.7493L210.586 31.696ZM198.81 31.696L197.833 31.9079L198.004 32.696H198.81V31.696ZM194.842 13.392L195.819 13.1801L195.757 12.8928L195.549 12.6849L194.842 13.392ZM189.978 11.088L189.727 12.056L189.727 12.056L189.978 11.088ZM163.61 20.304L162.775 19.7542L162.773 19.7567L163.61 20.304ZM163.354 79.44L164.234 78.9659L164.234 78.9659L163.354 79.44ZM190.49 90.064L190.806 91.0127L190.818 91.0089L190.829 91.0049L190.49 90.064ZM195.866 86.864L196.551 87.5922L196.704 87.449L196.786 87.2568L195.866 86.864ZM201.498 73.68L201.593 72.6845L200.865 72.6152L200.578 73.2872L201.498 73.68ZM212.25 74.704L213.242 74.832L213.374 73.8065L212.345 73.7085L212.25 74.704ZM209.69 94.544L209.785 95.5395L210.58 95.4638L210.682 94.672L209.69 94.544ZM204.314 95.568L204.557 96.5381L204.573 96.5341L204.589 96.5295L204.314 95.568ZM201.114 96.336L200.918 95.3554L200.883 95.3624L200.849 95.3718L201.114 96.336ZM191.514 98.512L191.345 97.5264L191.329 97.5292L191.312 97.5325L191.514 98.512ZM180.762 98.408C166.462 98.408 155.672 94.1681 148.229 85.8147L146.735 87.1453C154.652 96.0293 166.049 100.408 180.762 100.408V98.408ZM148.232 85.8184C140.756 77.3455 136.962 65.7444 136.962 50.896H134.962C134.962 66.0849 138.848 78.2065 146.732 87.1416L148.232 85.8184ZM136.962 50.896C136.962 41.1341 138.939 32.6863 142.856 25.5196L141.1 24.5604C136.996 32.071 134.962 40.8605 134.962 50.896H136.962ZM142.854 25.5231C146.864 18.2539 152.324 12.6738 159.239 8.75816L158.253 7.01782C151.003 11.1235 145.284 16.9781 141.102 24.5569L142.854 25.5231ZM159.239 8.75816C166.156 4.84098 174.005 2.87199 182.81 2.87199V0.871994C173.695 0.871994 165.501 2.91367 158.253 7.01782L159.239 8.75816ZM182.81 2.87199C186.519 2.87199 190.097 3.12489 193.545 3.62945L193.835 1.65053C190.285 1.1311 186.61 0.871994 182.81 0.871994V2.87199ZM193.569 3.63264C197.051 4.05733 201.177 4.65266 205.947 5.41933L206.265 3.44467C201.478 2.67534 197.326 2.076 193.811 1.64735L193.569 3.63264ZM205.942 5.41839C207.735 5.71731 209.127 5.94222 210.116 6.09262C210.609 6.16773 211.007 6.22499 211.305 6.2637C211.577 6.29886 211.831 6.328 211.994 6.328V4.328C212.005 4.328 211.979 4.32793 211.89 4.31896C211.81 4.31097 211.701 4.2983 211.563 4.28029C211.285 4.24434 210.904 4.18959 210.416 4.11538C209.442 3.96711 208.061 3.74402 206.27 3.44561L205.942 5.41839ZM210.995 5.27467L209.587 31.6427L211.585 31.7493L212.993 5.38132L210.995 5.27467ZM210.586 30.696H198.81V32.696H210.586V30.696ZM199.787 31.4841L195.819 13.1801L193.865 13.6039L197.833 31.9079L199.787 31.4841ZM195.549 12.6849C194.42 11.5555 192.588 10.7316 190.229 10.12L189.727 12.056C191.976 12.6391 193.387 13.3512 194.135 14.0991L195.549 12.6849ZM190.229 10.12C187.813 9.49361 184.777 9.19199 181.146 9.19199V11.192C184.683 11.192 187.535 11.4877 189.727 12.056L190.229 10.12ZM181.146 9.19199C173.514 9.19199 167.372 12.7692 162.775 19.7542L164.445 20.8538C168.722 14.3562 174.271 11.192 181.146 11.192V9.19199ZM162.773 19.7567C158.269 26.646 156.082 36.5572 156.082 49.36H158.082C158.082 36.7335 160.247 27.274 164.447 20.8512L162.773 19.7567ZM156.082 49.36C156.082 61.7519 158.189 71.9571 162.474 79.9141L164.234 78.9659C160.156 71.3923 158.082 61.5441 158.082 49.36H156.082ZM162.474 79.9141C164.628 83.9145 167.306 86.9684 170.529 89.0197C173.757 91.074 177.479 92.088 181.658 92.088V90.088C177.816 90.088 174.476 89.1606 171.603 87.3323C168.725 85.5009 166.262 82.7309 164.234 78.9659L162.474 79.9141ZM181.658 92.088C185.536 92.088 188.606 91.746 190.806 91.0127L190.174 89.1153C188.278 89.7473 185.46 90.088 181.658 90.088V92.088ZM190.829 91.0049C193.073 90.1969 194.988 89.0635 196.551 87.5922L195.181 86.1358C193.843 87.3951 192.173 88.3951 190.151 89.1231L190.829 91.0049ZM196.786 87.2568L202.418 74.0728L200.578 73.2872L194.946 86.4712L196.786 87.2568ZM201.403 74.6755L212.155 75.6995L212.345 73.7085L201.593 72.6845L201.403 74.6755ZM211.258 74.576L208.698 94.416L210.682 94.672L213.242 74.832L211.258 74.576ZM209.595 93.5485C207.74 93.7252 205.888 94.0783 204.039 94.6065L204.589 96.5295C206.324 96.0337 208.056 95.7042 209.785 95.5395L209.595 93.5485ZM204.071 94.5979C202.356 95.0267 201.316 95.2758 200.918 95.3554L201.31 97.3166C201.765 97.2255 202.859 96.9626 204.557 96.5381L204.071 94.5979ZM200.849 95.3718C197.462 96.3032 194.294 97.0208 191.345 97.5264L191.683 99.4976C194.707 98.9792 197.939 98.2462 201.379 97.3002L200.849 95.3718ZM191.312 97.5325C188.499 98.1117 184.988 98.408 180.762 98.408V100.408C185.07 100.408 188.726 100.107 191.716 99.4915L191.312 97.5325Z" fill="#62593C" mask="url(#path-1-outside-1_14_3)"/>
</g>
<defs>
<filter id="filter0_d_14_3" x="0.888" y="0.872009" width="212.362" height="103.536" filterUnits="userSpaceOnUse" color-interpolation-filters="sRGB">
<feFlood flood-opacity="0" result="BackgroundImageFix"/>
<feColorMatrix in="SourceAlpha" type="matrix" values="0 0 0 0 0 0 0 0 0 0 0 0 0 0 0 0 0 0 127 0" result="hardAlpha"/>
<feOffset dx="-2" dy="2"/>
<feGaussianBlur stdDeviation="1.5"/>
<feComposite in2="hardAlpha" operator="out"/>
<feColorMatrix type="matrix" values="0 0 0 0 0.101961 0 0 0 0 0.101961 0 0 0 0 0.105882 0 0 0 1 0"/>
<feBlend mode="normal" in2="BackgroundImageFix" result="effect1_dropShadow_14_3"/>
<feBlend mode="normal" in="SourceGraphic" in2="effect1_dropShadow_14_3" result="shape"/>
</filter>
</defs>
</svg>
